# xmcd
#
# Track frame offsets:
#	150
#	47806
#	72006
#	96552
#	123645
#	177753
#	210753
#	227334
#	255575
#	293832
#
# Disc length: 4386 seconds
#
# Revision: 0
# Processed by: cddbd v1.5.1PL2 Copyright (c) Steve Scherf et al.
# Submitted via: EasyCDDAExtractor 8.2.3.1
#
DISCID=8611200a
DTITLE=Paul Barrere and Fred Tackett - Sheridan Opera House - Telluride, CO 02-1
DTITLE=8-01 disc 1
DYEAR=2001
DGENRE=Blues
TTITLE0=Two Trains -> Rocket In My Pocket
TTITLE1=Rad Gumbo
TTITLE2=Hate To Lose Your Lovin'
TTITLE3=Ain't Had Enough Fun
TTITLE4=Dixie Chicken
TTITLE5=Sailin' Shoes
TTITLE6=Long Black Veil
TTITLE7=Fool Yourself
TTITLE8=All that You Dream
TTITLE9=Clownin
EXTD=
EXTT0=
EXTT1=
EXTT2=
EXTT3=
EXTT4=
EXTT5=
EXTT6=
EXTT7=
EXTT8=
EXTT9=
PLAYORDER=
